# xmcd
#
# Track frame offsets:
#       150
#       20661
#       36210
#       55040
#       70215
#       88519
#       104338
#       119489
#       134605
#       152780
#       168181
#       184571
#
# Disc length: 2810 seconds
#
# Revision: 0
# Processed by: cddbd v1.5.2PL0 Copyright (c) Steve Scherf et al.
# Submitted via: WhereIsIt 3.26
#
DISCID=9e0af80c
DTITLE=Talisman - Talisman
DYEAR=1900
DGENRE=
TTITLE0=Talisman - Rugaciune (N-ar ajunge)
TTITLE1=Talisman - Te mai astept
TTITLE2=Talisman - Suflete dragi
TTITLE3=Talisman - Ruinele iubirii (remix)
TTITLE4=Talisman - Bun ramas
TTITLE5=Talisman - Intoace-te la mine
TTITLE6=Talisman - Amintiri
TTITLE7=Talisman - Hai zambeste
TTITLE8=Talisman - Ruinele iubirii (unplugged)
TTITLE9=Talisman - Atat de singur
TTITLE10=Talisman - Na, na, na
TTITLE11=Talisman - Ochii ei (remix)
EXTD=
EXTT0=
EXTT1=
EXTT2=
EXTT3=
EXTT4=
EXTT5=
EXTT6=
EXTT7=
EXTT8=
EXTT9=
EXTT10=
EXTT11=
PLAYORDER=
